<svg xmlns="http://www.w3.org/2000/svg" viewBox="0 0 300 300" xml:space="preserve"><path fill="#E5E5E4" d="M259.63 42.398H39.955c-10.335 0-19.077 8.596-19.077 18.925v131.718h258.245V61.323c0-10.329-9.158-18.925-19.493-18.925z"/><path fill="#EFEFEF" d="M56.095 42.398h-16.14c-10.335 0-19.077 8.596-19.077 18.925v131.718h16.14V61.323c0-10.329 8.742-18.925 19.077-18.925z"/><path fill="#E5E5E4" d="M133.86 219.941h26.901v21.521H133.86z"/><path fill="#9AD7D2" d="M101.579 241.462h91.462v16.14h-91.462zM20.877 193.041v8.385c0 10.329 8.743 18.515 19.077 18.515H259.63c10.335 0 19.492-8.186 19.492-18.515v-8.385H20.877z"/><path fill="#ABEDE6" d="M37.018 201.426v-8.385h-16.14v8.385c0 10.329 8.743 18.515 19.077 18.515h16.14c-10.335 0-19.077-8.185-19.077-18.515z"/><path fill="#E5E5E4" d="M150 206.491a2.688 2.688 0 0 1-2.69 2.69 2.688 2.688 0 0 1-2.69-2.69 2.688 2.688 0 0 1 2.69-2.69 2.688 2.688 0 0 1 2.69 2.69z"/><path fill="#FE6F80" d="M150 63.918 85.439 171.52h129.122z"/><path fill="#E5E5E4" d="M155.38 139.24a5.378 5.378 0 0 1-5.38 5.38 5.378 5.378 0 0 1-5.38-5.38v-37.661a5.378 5.378 0 0 1 5.38-5.38 5.38 5.38 0 0 1 5.38 5.38v37.661z"/><circle fill="#E5E5E4" cx="150" cy="155.38" r="5.38"/><path fill="#ABEDE6" d="M101.579 241.462h10.76v16.14h-10.76z"/><path fill="#EFEFEF" d="M133.86 219.941h10.76v21.521h-10.76z"/><g><path fill="#161616" d="M160.76 246.842h-26.9a5.378 5.378 0 0 1-5.38-5.38v-21.521a5.378 5.378 0 0 1 5.38-5.38h26.901a5.378 5.378 0 0 1 5.38 5.38v21.521a5.38 5.38 0 0 1-5.381 5.38zm-21.52-10.76h16.14v-10.76h-16.14v10.76z"/><path fill="#161616" d="M193.041 262.982h-91.462a5.378 5.378 0 0 1-5.38-5.38v-16.14a5.378 5.378 0 0 1 5.38-5.38h91.462a5.378 5.378 0 0 1 5.38 5.38v16.14a5.378 5.378 0 0 1-5.38 5.38zm-86.082-10.76h80.702v-5.38h-80.702v5.38zM259.63 225.321H39.955c-13.487 0-24.457-10.718-24.457-23.895v-8.385a5.378 5.378 0 0 1 5.38-5.38h258.245a5.378 5.378 0 0 1 5.38 5.38v8.385c0 12.951-11.391 23.895-24.873 23.895zm-233.373-26.9v3.005c0 7.245 6.145 13.135 13.697 13.135H259.63c7.65 0 14.112-6.016 14.112-13.135v-3.005H26.257z"/><path fill="#161616" d="M150 206.491a2.688 2.688 0 0 1-2.69 2.69 2.688 2.688 0 0 1-2.69-2.69 2.688 2.688 0 0 1 2.69-2.69 2.688 2.688 0 0 1 2.69 2.69zM155.38 139.24a5.378 5.378 0 0 1-5.38 5.38 5.378 5.378 0 0 1-5.38-5.38v-37.661a5.378 5.378 0 0 1 5.38-5.38 5.38 5.38 0 0 1 5.38 5.38v37.661z"/><circle fill="#161616" cx="150" cy="155.38" r="5.38"/><path fill="#161616" d="M279.123 198.421H20.877a5.378 5.378 0 0 1-5.38-5.38V96.199a5.378 5.378 0 0 1 5.38-5.38 5.378 5.378 0 0 1 5.38 5.38v91.462h247.485V61.323c0-7.214-6.594-13.545-14.112-13.545H39.955c-7.424 0-13.697 6.205-13.697 13.545v13.356a5.378 5.378 0 0 1-5.38 5.38 5.378 5.378 0 0 1-5.38-5.38V61.323c0-13.177 11.199-24.305 24.457-24.305H259.63c13.482 0 24.872 11.128 24.872 24.305v131.718a5.377 5.377 0 0 1-5.379 5.38z"/><path fill="#161616" d="M214.561 176.901H85.439a5.382 5.382 0 0 1-4.613-8.149L145.387 61.15c1.944-3.236 7.282-3.236 9.226 0l41.596 69.327a5.38 5.38 0 1 1-9.226 5.538L150 74.374 94.941 166.14H205.06l-7.006-11.674a5.38 5.38 0 0 1 1.844-7.382c2.543-1.534 5.85-.704 7.382 1.844l11.895 19.823a5.38 5.38 0 0 1-4.614 8.15z"/></g></svg>